<svg xmlns="http://www.w3.org/2000/svg" xmlns:xlink="http://www.w3.org/1999/xlink" width="480" zoomAndPan="magnify" viewBox="0 0 360 359.999987" height="480" preserveAspectRatio="xMidYMid meet" version="1.0"><defs><clipPath id="bc8c3905e0"><path d="M 108 238 L 122 238 L 122 252.203125 L 108 252.203125 Z M 108 238 " clip-rule="nonzero"/></clipPath><clipPath id="b8e0e0bd2b"><path d="M 18.898438 80.050781 L 180.054688 80.050781 L 180.054688 360 L 18.898438 360 Z M 18.898438 80.050781 " clip-rule="nonzero"/></clipPath><clipPath id="5f34c4b381"><path d="M 180 80.050781 L 341.117188 80.050781 L 341.117188 360 L 180 360 Z M 180 80.050781 " clip-rule="nonzero"/></clipPath><clipPath id="168075816c"><path d="M 18.898438 0.0273438 L 341.117188 0.0273438 L 341.117188 161.179688 L 18.898438 161.179688 Z M 18.898438 0.0273438 " clip-rule="nonzero"/></clipPath></defs><g clip-path="url(#bc8c3905e0)"><path fill="#000000" d="M 121.71875 238.515625 C 121.203125 238 119.148438 239.007812 118.464844 239.695312 L 116.6875 241.472656 L 108.964844 240.109375 C 108.90625 240.097656 108.84375 240.117188 108.800781 240.160156 L 108.070312 240.894531 C 108.027344 240.933594 108.007812 240.996094 108.015625 241.054688 C 108.027344 241.113281 108.0625 241.160156 108.117188 241.1875 L 114.160156 244.210938 L 111.597656 247.484375 L 109.332031 247.082031 C 109.273438 247.074219 109.210938 247.09375 109.167969 247.132812 L 108.617188 247.683594 C 108.578125 247.726562 108.558594 247.785156 108.566406 247.839844 C 108.574219 247.898438 108.609375 247.949219 108.660156 247.976562 L 110.527344 248.980469 L 110.050781 249.933594 C 110.015625 250.003906 110.03125 250.089844 110.085938 250.144531 C 110.121094 250.179688 110.167969 250.199219 110.21875 250.199219 C 110.246094 250.199219 110.273438 250.191406 110.300781 250.179688 L 111.253906 249.703125 L 112.257812 251.570312 C 112.285156 251.621094 112.335938 251.65625 112.394531 251.667969 C 112.402344 251.667969 112.410156 251.667969 112.417969 251.667969 C 112.46875 251.667969 112.515625 251.648438 112.550781 251.613281 L 113.101562 251.0625 C 113.140625 251.019531 113.160156 250.960938 113.152344 250.902344 L 112.75 248.632812 L 116.023438 246.074219 L 119.046875 252.117188 C 119.074219 252.171875 119.125 252.207031 119.179688 252.214844 C 119.191406 252.21875 119.199219 252.21875 119.210938 252.21875 C 119.261719 252.21875 119.304688 252.199219 119.339844 252.164062 L 120.074219 251.429688 C 120.117188 251.386719 120.136719 251.328125 120.125 251.269531 L 118.765625 243.546875 L 120.542969 241.769531 C 121.230469 241.082031 122.234375 239.03125 121.71875 238.515625 Z M 121.71875 238.515625 " fill-opacity="1" fill-rule="nonzero"/></g><g clip-path="url(#b8e0e0bd2b)"><path fill="#2184bf" d="M 180.007812 360 L 18.898438 279.429688 L 18.898438 80.601562 L 180.007812 161.171875 L 180.007812 360 " fill-opacity="1" fill-rule="nonzero"/></g><g clip-path="url(#5f34c4b381)"><path fill="#009efb" d="M 341.121094 279.429688 L 180.007812 360 L 180.007812 161.171875 L 341.121094 80.601562 L 341.121094 279.429688 " fill-opacity="1" fill-rule="nonzero"/></g><g clip-path="url(#168075816c)"><path fill="#3bb6ff" d="M 341.121094 80.601562 L 180.007812 161.171875 L 18.898438 80.601562 L 180.007812 0.03125 L 341.121094 80.601562 " fill-opacity="1" fill-rule="nonzero"/></g><path fill="#ffffff" d="M 77.390625 270.089844 C 77.390625 265.917969 78.8125 263.183594 81.652344 261.894531 C 84.496094 260.609375 88.140625 261.078125 92.578125 263.296875 C 97.011719 265.515625 100.65625 268.691406 103.5 272.820312 C 106.34375 276.953125 107.765625 281.109375 107.765625 285.28125 C 107.765625 289.394531 106.371094 292.09375 103.59375 293.378906 C 100.808594 294.667969 97.136719 294.171875 92.578125 291.894531 C 88.011719 289.609375 84.34375 286.433594 81.558594 282.363281 C 78.78125 278.292969 77.390625 274.203125 77.390625 270.089844 Z M 80.105469 242.710938 C 80.105469 233.953125 81.167969 227.507812 83.296875 223.378906 C 85.421875 219.246094 89.3125 216.078125 94.972656 213.867188 C 100.621094 211.660156 104.386719 209.441406 106.265625 207.222656 C 108.136719 204.996094 109.082031 202.132812 109.082031 198.621094 C 109.082031 188.042969 104.199219 180.3125 94.453125 175.4375 C 89.824219 173.121094 86.125 172.695312 83.34375 174.15625 C 80.558594 175.617188 79.105469 178.820312 78.980469 183.769531 L 51.792969 170.171875 C 51.917969 158.28125 55.777344 150.859375 63.371094 147.902344 C 70.96875 144.941406 81.324219 146.742188 94.453125 153.308594 C 107.703125 159.933594 117.988281 168.285156 125.300781 178.355469 C 132.613281 188.425781 136.269531 199.3125 136.269531 211.011719 C 136.269531 216.332031 135.078125 220.757812 132.707031 224.292969 C 130.328125 227.828125 126.171875 230.992188 120.238281 233.777344 L 112.640625 237.207031 C 107.890625 239.398438 105.171875 243.390625 104.480469 249.175781 L 104.113281 254.714844 L 80.105469 242.710938 " fill-opacity="1" fill-rule="nonzero"/><path fill="#ffffff" d="M 243.921875 286.335938 C 243.921875 282.160156 245.34375 278.007812 248.1875 273.875 C 251.03125 269.746094 254.675781 266.566406 259.113281 264.351562 C 263.542969 262.132812 267.191406 261.664062 270.03125 262.949219 C 272.875 264.238281 274.300781 266.96875 274.300781 271.144531 C 274.300781 275.257812 272.90625 279.351562 270.128906 283.417969 C 267.34375 287.492188 263.667969 290.667969 259.113281 292.945312 C 254.546875 295.230469 250.875 295.726562 248.09375 294.4375 C 245.3125 293.148438 243.921875 290.449219 243.921875 286.335938 Z M 246.636719 256.238281 C 246.636719 247.480469 247.703125 239.96875 249.828125 233.714844 C 251.953125 227.460938 255.84375 220.398438 261.503906 212.53125 C 267.15625 204.667969 270.921875 198.683594 272.800781 194.582031 C 274.671875 190.484375 275.613281 186.679688 275.613281 183.171875 C 275.613281 172.59375 270.734375 169.742188 260.984375 174.617188 C 256.359375 176.929688 252.65625 180.207031 249.875 184.449219 C 247.09375 188.691406 245.636719 193.351562 245.515625 198.425781 L 218.324219 212.019531 C 218.449219 200.007812 222.308594 188.722656 229.90625 178.167969 C 237.5 167.613281 247.859375 159.050781 260.984375 152.488281 C 274.234375 145.859375 284.519531 143.925781 291.832031 146.679688 C 299.144531 149.4375 302.800781 156.667969 302.800781 168.367188 C 302.800781 173.683594 301.613281 179.300781 299.238281 185.210938 C 296.863281 191.125 292.707031 198.445312 286.769531 207.167969 L 279.175781 218.195312 C 274.425781 225.136719 271.703125 231.847656 271.015625 238.324219 L 270.644531 244.234375 L 246.636719 256.238281 " fill-opacity="1" fill-rule="nonzero"/><path fill="#ffffff" d="M 220.992188 110.496094 C 216.992188 108.496094 215.058594 106.167969 215.183594 103.507812 C 215.3125 100.847656 217.507812 98.453125 221.757812 96.328125 C 226.003906 94.207031 230.789062 93.109375 236.105469 93.042969 C 241.425781 92.980469 246.089844 93.945312 250.085938 95.945312 C 254.023438 97.914062 255.941406 100.210938 255.84375 102.824219 C 255.746094 105.441406 253.507812 107.84375 249.144531 110.023438 C 244.769531 112.210938 239.972656 113.328125 234.738281 113.378906 C 229.515625 113.425781 224.929688 112.46875 220.992188 110.496094 Z M 196.070312 95.429688 C 187.679688 91.238281 182.015625 87.382812 179.078125 83.878906 C 176.140625 80.375 174.96875 76.058594 175.558594 70.933594 C 176.152344 65.816406 175.832031 62.046875 174.601562 59.632812 C 173.367188 57.222656 171.074219 55.171875 167.714844 53.496094 C 157.582031 48.425781 147.839844 48.230469 138.503906 52.898438 C 134.074219 55.117188 131.890625 57.570312 131.960938 60.269531 C 132.023438 62.96875 134.398438 65.546875 139.078125 68.007812 L 113.039062 81.03125 C 101.710938 75.246094 96.449219 68.917969 97.253906 62.042969 C 98.054688 55.167969 104.738281 48.585938 117.3125 42.300781 C 130.003906 35.953125 142.925781 32.5625 156.070312 32.132812 C 169.214844 31.699219 181.394531 34.289062 192.601562 39.894531 C 197.691406 42.4375 201.363281 45.414062 203.613281 48.8125 C 205.863281 52.214844 206.898438 56.71875 206.726562 62.316406 L 206.375 69.414062 C 206.199219 73.878906 208.71875 77.746094 213.933594 81.011719 L 219.058594 83.933594 L 196.070312 95.429688 " fill-opacity="1" fill-rule="nonzero"/></svg>